<mxfile host="app.diagrams.net" modified="2023-10-12T21:42:37.718Z" agent="Mozilla/5.0 (X11; Linux x86_64) AppleWebKit/537.36 (KHTML, like Gecko) Chrome/117.0.0.0 Safari/537.36" etag="mI0kPN6Q2jriagwDZLWL" version="21.6.9" type="device">
  <diagram name="PÃ¡gina-1" id="7qaQ8ReuUvNEm__BSsaD">
    <mxGraphModel dx="2739" dy="2197" grid="1" gridSize="10" guides="1" tooltips="1" connect="1" arrows="1" fold="1" page="1" pageScale="1" pageWidth="827" pageHeight="1169" math="0" shadow="0">
      <root>
        <mxCell id="0" />
        <mxCell id="1" parent="0" />
        <mxCell id="NcY6G_zbw2ig_dXHKXd7-1" value="&lt;p style=&quot;margin:0px;margin-top:4px;text-align:center;&quot;&gt;&lt;b&gt;Orden&lt;/b&gt;&lt;/p&gt;&lt;hr size=&quot;1&quot;&gt;&lt;p style=&quot;margin:0px;margin-left:4px;&quot;&gt;- id:int&lt;/p&gt;&lt;p style=&quot;margin:0px;margin-left:4px;&quot;&gt;- numeroPedido: string&lt;/p&gt;&lt;p style=&quot;margin:0px;margin-left:4px;&quot;&gt;- fechaPedido: date&lt;/p&gt;&lt;p style=&quot;margin:0px;margin-left:4px;&quot;&gt;- fechaCreacion: date&lt;/p&gt;&lt;p style=&quot;margin:0px;margin-left:4px;&quot;&gt;- estado: string&lt;/p&gt;&lt;hr size=&quot;1&quot;&gt;&lt;p style=&quot;margin:0px;margin-left:4px;&quot;&gt;&lt;br&gt;&lt;/p&gt;" style="verticalAlign=top;align=left;overflow=fill;fontSize=12;fontFamily=Helvetica;html=1;whiteSpace=wrap;" vertex="1" parent="1">
          <mxGeometry x="-200" y="90" width="160" height="140" as="geometry" />
        </mxCell>
        <mxCell id="NcY6G_zbw2ig_dXHKXd7-5" value="&lt;p style=&quot;margin:0px;margin-top:4px;text-align:center;&quot;&gt;&lt;b&gt;Transporte&lt;/b&gt;&lt;/p&gt;&lt;hr size=&quot;1&quot;&gt;&lt;p style=&quot;margin:0px;margin-left:4px;&quot;&gt;- id: int&lt;/p&gt;&lt;p style=&quot;margin:0px;margin-left:4px;&quot;&gt;- nombre: string&lt;/p&gt;" style="verticalAlign=top;align=left;overflow=fill;fontSize=12;fontFamily=Helvetica;html=1;whiteSpace=wrap;" vertex="1" parent="1">
          <mxGeometry x="140" y="40" width="160" height="80" as="geometry" />
        </mxCell>
        <mxCell id="NcY6G_zbw2ig_dXHKXd7-9" value="&lt;p style=&quot;margin:0px;margin-top:4px;text-align:center;&quot;&gt;&lt;b&gt;DistribuidoraZonal&lt;/b&gt;&lt;/p&gt;&lt;hr size=&quot;1&quot;&gt;&lt;p style=&quot;margin:0px;margin-left:4px;&quot;&gt;- id: int&lt;/p&gt;&lt;p style=&quot;margin:0px;margin-left:4px;&quot;&gt;- nombre: string&amp;nbsp;&lt;/p&gt;&lt;p style=&quot;margin:0px;margin-left:4px;&quot;&gt;- codigoPostal: string&lt;/p&gt;&lt;p style=&quot;margin:0px;margin-left:4px;&quot;&gt;&lt;br&gt;&lt;/p&gt;" style="verticalAlign=top;align=left;overflow=fill;fontSize=12;fontFamily=Helvetica;html=1;whiteSpace=wrap;" vertex="1" parent="1">
          <mxGeometry x="120" y="200" width="160" height="80" as="geometry" />
        </mxCell>
        <mxCell id="NcY6G_zbw2ig_dXHKXd7-10" value="&lt;p style=&quot;margin:0px;margin-top:4px;text-align:center;&quot;&gt;&lt;b&gt;Cliente&lt;/b&gt;&lt;/p&gt;&lt;hr size=&quot;1&quot;&gt;&lt;p style=&quot;margin:0px;margin-left:4px;&quot;&gt;- id:int&lt;/p&gt;&lt;p style=&quot;margin:0px;margin-left:4px;&quot;&gt;- nombre: string&lt;/p&gt;&lt;p style=&quot;margin:0px;margin-left:4px;&quot;&gt;- email: string&lt;/p&gt;&lt;p style=&quot;margin:0px;margin-left:4px;&quot;&gt;- direccionEntrega: string&lt;/p&gt;&lt;hr size=&quot;1&quot;&gt;&lt;p style=&quot;margin:0px;margin-left:4px;&quot;&gt;+ verArticulos()&lt;/p&gt;&lt;p style=&quot;margin:0px;margin-left:4px;&quot;&gt;+ agregarAlCarrito(articulo: Articulo)&lt;/p&gt;&lt;p style=&quot;margin:0px;margin-left:4px;&quot;&gt;+ realizarCompra(pago: Pago)&lt;/p&gt;" style="verticalAlign=top;align=left;overflow=fill;fontSize=12;fontFamily=Helvetica;html=1;whiteSpace=wrap;" vertex="1" parent="1">
          <mxGeometry x="-110" y="-250" width="200" height="150" as="geometry" />
        </mxCell>
        <mxCell id="NcY6G_zbw2ig_dXHKXd7-11" value="&lt;p style=&quot;margin:0px;margin-top:4px;text-align:center;&quot;&gt;&lt;b&gt;Administrador&lt;/b&gt;&lt;/p&gt;&lt;hr size=&quot;1&quot;&gt;&lt;p style=&quot;margin:0px;margin-left:4px;&quot;&gt;- id:int&lt;/p&gt;&lt;p style=&quot;margin:0px;margin-left:4px;&quot;&gt;- nombre: string&lt;/p&gt;&lt;p style=&quot;margin:0px;margin-left:4px;&quot;&gt;- email: string&lt;/p&gt;&lt;hr size=&quot;1&quot;&gt;&lt;p style=&quot;margin:0px;margin-left:4px;&quot;&gt;+&amp;nbsp;&lt;span style=&quot;background-color: initial;&quot;&gt;agregarArticulo(articulo: Articulo)&lt;/span&gt;&lt;/p&gt;&lt;p style=&quot;margin:0px;margin-left:4px;&quot;&gt;+ eliminarArticulo(articulo: Articulo)&lt;/p&gt;" style="verticalAlign=top;align=left;overflow=fill;fontSize=12;fontFamily=Helvetica;html=1;whiteSpace=wrap;" vertex="1" parent="1">
          <mxGeometry x="460" y="-310" width="200" height="130" as="geometry" />
        </mxCell>
        <mxCell id="NcY6G_zbw2ig_dXHKXd7-12" value="&lt;p style=&quot;margin:0px;margin-top:4px;text-align:center;&quot;&gt;&lt;b&gt;DatosEnvio&lt;/b&gt;&lt;/p&gt;&lt;hr size=&quot;1&quot;&gt;&lt;p style=&quot;margin:0px;margin-left:4px;&quot;&gt;- id: int&lt;/p&gt;&lt;p style=&quot;margin:0px;margin-left:4px;&quot;&gt;- tipo: string&lt;/p&gt;&lt;p style=&quot;margin:0px;margin-left:4px;&quot;&gt;- direccion: string&lt;/p&gt;" style="verticalAlign=top;align=left;overflow=fill;fontSize=12;fontFamily=Helvetica;html=1;whiteSpace=wrap;" vertex="1" parent="1">
          <mxGeometry x="-530" y="410" width="160" height="80" as="geometry" />
        </mxCell>
        <mxCell id="NcY6G_zbw2ig_dXHKXd7-14" value="&lt;p style=&quot;margin:0px;margin-top:4px;text-align:center;&quot;&gt;&lt;b&gt;Carrito&lt;/b&gt;&lt;/p&gt;&lt;hr size=&quot;1&quot;&gt;&lt;p style=&quot;margin:0px;margin-left:4px;&quot;&gt;- listaDeArticulos: List&amp;lt;Articulo&amp;gt;&lt;/p&gt;&lt;p style=&quot;margin:0px;margin-left:4px;&quot;&gt;- totalPedido: double&lt;/p&gt;&lt;hr size=&quot;1&quot;&gt;&lt;p style=&quot;margin:0px;margin-left:4px;&quot;&gt;+ AgregarArticulo()&lt;/p&gt;&lt;p style=&quot;margin:0px;margin-left:4px;&quot;&gt;+ eliminarArticulo()&lt;/p&gt;&lt;p style=&quot;margin:0px;margin-left:4px;&quot;&gt;+ verTotalPedido() double&lt;/p&gt;" style="verticalAlign=top;align=left;overflow=fill;fontSize=12;fontFamily=Helvetica;html=1;whiteSpace=wrap;" vertex="1" parent="1">
          <mxGeometry x="570" y="60" width="200" height="120" as="geometry" />
        </mxCell>
        <mxCell id="NcY6G_zbw2ig_dXHKXd7-15" value="&lt;p style=&quot;margin:0px;margin-top:4px;text-align:center;&quot;&gt;&lt;b&gt;Pago&lt;/b&gt;&lt;/p&gt;&lt;hr size=&quot;1&quot;&gt;&lt;p style=&quot;margin:0px;margin-left:4px;&quot;&gt;- id: int&lt;/p&gt;&lt;p style=&quot;margin:0px;margin-left:4px;&quot;&gt;- fecha: date&lt;/p&gt;&lt;p style=&quot;margin:0px;margin-left:4px;&quot;&gt;- importe: double&lt;/p&gt;&lt;p style=&quot;margin:0px;margin-left:4px;&quot;&gt;- detalles: string&lt;/p&gt;&lt;p style=&quot;margin:0px;margin-left:4px;&quot;&gt;- numeroTarjeta: string&lt;/p&gt;&lt;p style=&quot;margin:0px;margin-left:4px;&quot;&gt;- tipoTarjerta: string&lt;/p&gt;" style="verticalAlign=top;align=left;overflow=fill;fontSize=12;fontFamily=Helvetica;html=1;whiteSpace=wrap;" vertex="1" parent="1">
          <mxGeometry x="-690" y="50" width="160" height="120" as="geometry" />
        </mxCell>
        <mxCell id="NcY6G_zbw2ig_dXHKXd7-16" value="&lt;p style=&quot;margin:0px;margin-top:4px;text-align:center;&quot;&gt;&lt;b&gt;Articulo&lt;/b&gt;&lt;/p&gt;&lt;hr size=&quot;1&quot;&gt;&lt;p style=&quot;margin:0px;margin-left:4px;&quot;&gt;- id: int&lt;/p&gt;&lt;p style=&quot;margin:0px;margin-left:4px;&quot;&gt;- nombre: string&lt;/p&gt;&lt;p style=&quot;margin:0px;margin-left:4px;&quot;&gt;- categoria: string&lt;/p&gt;" style="verticalAlign=top;align=left;overflow=fill;fontSize=12;fontFamily=Helvetica;html=1;whiteSpace=wrap;" vertex="1" parent="1">
          <mxGeometry x="250" y="490" width="150" height="80" as="geometry" />
        </mxCell>
        <mxCell id="NcY6G_zbw2ig_dXHKXd7-31" value="" style="endArrow=none;html=1;rounded=0;entryX=1;entryY=0.25;entryDx=0;entryDy=0;exitX=0;exitY=0.75;exitDx=0;exitDy=0;" edge="1" parent="1" source="NcY6G_zbw2ig_dXHKXd7-5" target="NcY6G_zbw2ig_dXHKXd7-1">
          <mxGeometry width="50" height="50" relative="1" as="geometry">
            <mxPoint x="640" y="120" as="sourcePoint" />
            <mxPoint x="480" y="-8" as="targetPoint" />
            <Array as="points" />
          </mxGeometry>
        </mxCell>
        <mxCell id="NcY6G_zbw2ig_dXHKXd7-32" value="Se asgina" style="edgeLabel;html=1;align=center;verticalAlign=middle;resizable=0;points=[];" vertex="1" connectable="0" parent="NcY6G_zbw2ig_dXHKXd7-31">
          <mxGeometry x="0.0003" y="7" relative="1" as="geometry">
            <mxPoint as="offset" />
          </mxGeometry>
        </mxCell>
        <mxCell id="NcY6G_zbw2ig_dXHKXd7-33" value="" style="endArrow=none;html=1;rounded=0;entryX=1.008;entryY=0.71;entryDx=0;entryDy=0;exitX=-0.019;exitY=0.409;exitDx=0;exitDy=0;entryPerimeter=0;exitPerimeter=0;" edge="1" parent="1" source="NcY6G_zbw2ig_dXHKXd7-9" target="NcY6G_zbw2ig_dXHKXd7-1">
          <mxGeometry width="50" height="50" relative="1" as="geometry">
            <mxPoint x="879" y="226" as="sourcePoint" />
            <mxPoint x="480" y="90" as="targetPoint" />
            <Array as="points" />
          </mxGeometry>
        </mxCell>
        <mxCell id="NcY6G_zbw2ig_dXHKXd7-34" value="Se asgina" style="edgeLabel;html=1;align=center;verticalAlign=middle;resizable=0;points=[];" vertex="1" connectable="0" parent="NcY6G_zbw2ig_dXHKXd7-33">
          <mxGeometry x="0.0003" y="7" relative="1" as="geometry">
            <mxPoint as="offset" />
          </mxGeometry>
        </mxCell>
        <mxCell id="NcY6G_zbw2ig_dXHKXd7-41" value="" style="endArrow=none;html=1;rounded=0;entryX=0.311;entryY=1.009;entryDx=0;entryDy=0;exitX=0.5;exitY=0;exitDx=0;exitDy=0;entryPerimeter=0;" edge="1" parent="1" source="NcY6G_zbw2ig_dXHKXd7-1" target="NcY6G_zbw2ig_dXHKXd7-10">
          <mxGeometry width="50" height="50" relative="1" as="geometry">
            <mxPoint x="100" y="150" as="sourcePoint" />
            <mxPoint x="-30" y="135" as="targetPoint" />
            <Array as="points" />
          </mxGeometry>
        </mxCell>
        <mxCell id="NcY6G_zbw2ig_dXHKXd7-42" value="Realiza" style="edgeLabel;html=1;align=center;verticalAlign=middle;resizable=0;points=[];" vertex="1" connectable="0" parent="NcY6G_zbw2ig_dXHKXd7-41">
          <mxGeometry x="0.0003" y="7" relative="1" as="geometry">
            <mxPoint as="offset" />
          </mxGeometry>
        </mxCell>
        <mxCell id="NcY6G_zbw2ig_dXHKXd7-45" value="" style="endArrow=none;html=1;rounded=0;entryX=-0.027;entryY=0.685;entryDx=0;entryDy=0;exitX=0.5;exitY=0;exitDx=0;exitDy=0;entryPerimeter=0;" edge="1" parent="1" source="NcY6G_zbw2ig_dXHKXd7-15" target="NcY6G_zbw2ig_dXHKXd7-10">
          <mxGeometry width="50" height="50" relative="1" as="geometry">
            <mxPoint x="-110" y="100" as="sourcePoint" />
            <mxPoint x="-28" y="-39" as="targetPoint" />
            <Array as="points" />
          </mxGeometry>
        </mxCell>
        <mxCell id="NcY6G_zbw2ig_dXHKXd7-46" value="Realiza" style="edgeLabel;html=1;align=center;verticalAlign=middle;resizable=0;points=[];" vertex="1" connectable="0" parent="NcY6G_zbw2ig_dXHKXd7-45">
          <mxGeometry x="0.0003" y="7" relative="1" as="geometry">
            <mxPoint as="offset" />
          </mxGeometry>
        </mxCell>
        <mxCell id="NcY6G_zbw2ig_dXHKXd7-47" value="" style="endArrow=none;html=1;rounded=0;entryX=1;entryY=1;entryDx=0;entryDy=0;exitX=0.421;exitY=-0.009;exitDx=0;exitDy=0;exitPerimeter=0;" edge="1" parent="1" source="NcY6G_zbw2ig_dXHKXd7-14" target="NcY6G_zbw2ig_dXHKXd7-10">
          <mxGeometry width="50" height="50" relative="1" as="geometry">
            <mxPoint x="-110" y="100" as="sourcePoint" />
            <mxPoint x="-28" y="-39" as="targetPoint" />
            <Array as="points" />
          </mxGeometry>
        </mxCell>
        <mxCell id="NcY6G_zbw2ig_dXHKXd7-48" value="Tiene" style="edgeLabel;html=1;align=center;verticalAlign=middle;resizable=0;points=[];" vertex="1" connectable="0" parent="NcY6G_zbw2ig_dXHKXd7-47">
          <mxGeometry x="0.0003" y="7" relative="1" as="geometry">
            <mxPoint as="offset" />
          </mxGeometry>
        </mxCell>
        <mxCell id="NcY6G_zbw2ig_dXHKXd7-49" value="" style="endArrow=none;html=1;rounded=0;entryX=0;entryY=0.5;entryDx=0;entryDy=0;exitX=1;exitY=0;exitDx=0;exitDy=0;" edge="1" parent="1" source="NcY6G_zbw2ig_dXHKXd7-1" target="NcY6G_zbw2ig_dXHKXd7-11">
          <mxGeometry width="50" height="50" relative="1" as="geometry">
            <mxPoint x="514" y="109" as="sourcePoint" />
            <mxPoint x="110" y="-40" as="targetPoint" />
            <Array as="points" />
          </mxGeometry>
        </mxCell>
        <mxCell id="NcY6G_zbw2ig_dXHKXd7-50" value="Administra" style="edgeLabel;html=1;align=center;verticalAlign=middle;resizable=0;points=[];" vertex="1" connectable="0" parent="NcY6G_zbw2ig_dXHKXd7-49">
          <mxGeometry x="0.0003" y="7" relative="1" as="geometry">
            <mxPoint as="offset" />
          </mxGeometry>
        </mxCell>
        <mxCell id="NcY6G_zbw2ig_dXHKXd7-53" value="" style="endArrow=none;html=1;rounded=0;entryX=0.25;entryY=1;entryDx=0;entryDy=0;exitX=0.421;exitY=-0.002;exitDx=0;exitDy=0;exitPerimeter=0;" edge="1" parent="1" source="NcY6G_zbw2ig_dXHKXd7-16" target="NcY6G_zbw2ig_dXHKXd7-11">
          <mxGeometry width="50" height="50" relative="1" as="geometry">
            <mxPoint x="460" y="20" as="sourcePoint" />
            <mxPoint x="430" y="-155" as="targetPoint" />
            <Array as="points" />
          </mxGeometry>
        </mxCell>
        <mxCell id="NcY6G_zbw2ig_dXHKXd7-54" value="Maneja" style="edgeLabel;html=1;align=center;verticalAlign=middle;resizable=0;points=[];" vertex="1" connectable="0" parent="NcY6G_zbw2ig_dXHKXd7-53">
          <mxGeometry x="0.0003" y="7" relative="1" as="geometry">
            <mxPoint as="offset" />
          </mxGeometry>
        </mxCell>
        <mxCell id="NcY6G_zbw2ig_dXHKXd7-55" value="" style="endArrow=none;html=1;rounded=0;entryX=0;entryY=0.25;entryDx=0;entryDy=0;exitX=1;exitY=0.25;exitDx=0;exitDy=0;" edge="1" parent="1" source="NcY6G_zbw2ig_dXHKXd7-15" target="NcY6G_zbw2ig_dXHKXd7-1">
          <mxGeometry width="50" height="50" relative="1" as="geometry">
            <mxPoint x="-484" y="300" as="sourcePoint" />
            <mxPoint x="-105" y="-137" as="targetPoint" />
            <Array as="points" />
          </mxGeometry>
        </mxCell>
        <mxCell id="NcY6G_zbw2ig_dXHKXd7-56" value="Realiza" style="edgeLabel;html=1;align=center;verticalAlign=middle;resizable=0;points=[];" vertex="1" connectable="0" parent="NcY6G_zbw2ig_dXHKXd7-55">
          <mxGeometry x="0.0003" y="7" relative="1" as="geometry">
            <mxPoint as="offset" />
          </mxGeometry>
        </mxCell>
        <mxCell id="NcY6G_zbw2ig_dXHKXd7-57" value="" style="endArrow=none;html=1;rounded=0;entryX=0.306;entryY=1.009;entryDx=0;entryDy=0;exitX=0.5;exitY=0;exitDx=0;exitDy=0;entryPerimeter=0;" edge="1" parent="1" source="NcY6G_zbw2ig_dXHKXd7-12" target="NcY6G_zbw2ig_dXHKXd7-1">
          <mxGeometry width="50" height="50" relative="1" as="geometry">
            <mxPoint x="-404" y="330" as="sourcePoint" />
            <mxPoint x="-190" y="240" as="targetPoint" />
            <Array as="points" />
          </mxGeometry>
        </mxCell>
        <mxCell id="NcY6G_zbw2ig_dXHKXd7-58" value="Tiene&amp;nbsp;" style="edgeLabel;html=1;align=center;verticalAlign=middle;resizable=0;points=[];" vertex="1" connectable="0" parent="NcY6G_zbw2ig_dXHKXd7-57">
          <mxGeometry x="0.0003" y="7" relative="1" as="geometry">
            <mxPoint as="offset" />
          </mxGeometry>
        </mxCell>
        <mxCell id="NcY6G_zbw2ig_dXHKXd7-60" value="&lt;p style=&quot;margin:0px;margin-top:4px;text-align:center;&quot;&gt;&lt;b&gt;Envio&lt;/b&gt;&lt;/p&gt;&lt;hr size=&quot;1&quot;&gt;&lt;p style=&quot;margin:0px;margin-left:4px;&quot;&gt;- id: int&lt;/p&gt;&lt;p style=&quot;margin:0px;margin-left:4px;&quot;&gt;- nroGuia: string&lt;/p&gt;" style="verticalAlign=top;align=left;overflow=fill;fontSize=12;fontFamily=Helvetica;html=1;whiteSpace=wrap;" vertex="1" parent="1">
          <mxGeometry x="-240" y="530" width="150" height="80" as="geometry" />
        </mxCell>
        <mxCell id="NcY6G_zbw2ig_dXHKXd7-61" value="" style="endArrow=none;html=1;rounded=0;entryX=0.75;entryY=1;entryDx=0;entryDy=0;exitX=0.5;exitY=0;exitDx=0;exitDy=0;" edge="1" parent="1" source="NcY6G_zbw2ig_dXHKXd7-60" target="NcY6G_zbw2ig_dXHKXd7-1">
          <mxGeometry width="50" height="50" relative="1" as="geometry">
            <mxPoint x="-270" y="450" as="sourcePoint" />
            <mxPoint x="-141" y="241" as="targetPoint" />
            <Array as="points" />
          </mxGeometry>
        </mxCell>
        <mxCell id="NcY6G_zbw2ig_dXHKXd7-62" value="Genera" style="edgeLabel;html=1;align=center;verticalAlign=middle;resizable=0;points=[];" vertex="1" connectable="0" parent="NcY6G_zbw2ig_dXHKXd7-61">
          <mxGeometry x="0.0003" y="7" relative="1" as="geometry">
            <mxPoint as="offset" />
          </mxGeometry>
        </mxCell>
        <mxCell id="NcY6G_zbw2ig_dXHKXd7-64" value="" style="endArrow=none;html=1;rounded=0;entryX=1;entryY=1;entryDx=0;entryDy=0;exitX=0;exitY=0;exitDx=0;exitDy=0;" edge="1" parent="1" source="NcY6G_zbw2ig_dXHKXd7-16" target="NcY6G_zbw2ig_dXHKXd7-1">
          <mxGeometry width="50" height="50" relative="1" as="geometry">
            <mxPoint x="-35" y="460" as="sourcePoint" />
            <mxPoint x="-70" y="240" as="targetPoint" />
            <Array as="points" />
          </mxGeometry>
        </mxCell>
        <mxCell id="NcY6G_zbw2ig_dXHKXd7-65" value="incluye" style="edgeLabel;html=1;align=center;verticalAlign=middle;resizable=0;points=[];" vertex="1" connectable="0" parent="NcY6G_zbw2ig_dXHKXd7-64">
          <mxGeometry x="0.0003" y="7" relative="1" as="geometry">
            <mxPoint as="offset" />
          </mxGeometry>
        </mxCell>
        <mxCell id="NcY6G_zbw2ig_dXHKXd7-68" value="" style="endArrow=none;html=1;rounded=0;entryX=0.302;entryY=0.992;entryDx=0;entryDy=0;exitX=1;exitY=0;exitDx=0;exitDy=0;entryPerimeter=0;" edge="1" parent="1" source="NcY6G_zbw2ig_dXHKXd7-16" target="NcY6G_zbw2ig_dXHKXd7-14">
          <mxGeometry width="50" height="50" relative="1" as="geometry">
            <mxPoint x="323" y="500" as="sourcePoint" />
            <mxPoint x="520" y="-170" as="targetPoint" />
            <Array as="points" />
          </mxGeometry>
        </mxCell>
        <mxCell id="NcY6G_zbw2ig_dXHKXd7-69" value="Contiene" style="edgeLabel;html=1;align=center;verticalAlign=middle;resizable=0;points=[];" vertex="1" connectable="0" parent="NcY6G_zbw2ig_dXHKXd7-68">
          <mxGeometry x="0.0003" y="7" relative="1" as="geometry">
            <mxPoint as="offset" />
          </mxGeometry>
        </mxCell>
      </root>
    </mxGraphModel>
  </diagram>
</mxfile>
